<svg width="128" height="128" viewBox="0 0 128 128" xmlns="http://www.w3.org/2000/svg">
<path d="M37.3333 109.333V45.3333C37.3333 43.1058 38.1111 41.2155 39.6667 39.6627C41.2222 38.1098 43.1111 37.3333 45.3333 37.3333H109.333C111.533 37.3333 113.417 38.1164 114.984 39.6827C116.55 41.2498 117.333 43.1333 117.333 45.3333V90.6667L90.6667 117.333H45.3333C43.1333 117.333 41.2502 116.55 39.684 114.983C38.1169 113.416 37.3333 111.533 37.3333 109.333ZM10.8 31.3333C10.3556 29.1111 10.7778 27.1333 12.0667 25.4C13.3556 23.6667 15.1111 22.5778 17.3333 22.1333L80.4 10.9333C82.6222 10.4889 84.6 10.8889 86.3333 12.1333C88.0667 13.3778 89.1556 15.1111 89.6 17.3333L91.7333 29.3333H83.7333L81.8667 18.8L18.8 29.8667L29.3333 89.8667V100.933C27.5556 100.756 26 100.089 24.6667 98.9333C23.3333 97.7778 22.4889 96.2667 22.1333 94.4L10.8 31.3333ZM45.3333 45.3333V109.333H86.4V86.4H109.333V45.3333H45.3333Z"/>
</svg>
