<svg width="128" height="128" viewBox="0 0 128 128" xmlns="http://www.w3.org/2000/svg">
<path d="M45.7333 72H75.7333V64H45.7333V72ZM45.7333 60H98.4V52H45.7333V60ZM45.7333 48H98.4V40H45.7333V48ZM34.6667 101.333C32.5333 101.333 30.6667 100.533 29.0667 98.9333C27.4667 97.3333 26.6667 95.4667 26.6667 93.3333V18.6667C26.6667 16.5333 27.4667 14.6667 29.0667 13.0667C30.6667 11.4667 32.5333 10.6667 34.6667 10.6667H109.333C111.467 10.6667 113.333 11.4667 114.933 13.0667C116.533 14.6667 117.333 16.5333 117.333 18.6667V93.3333C117.333 95.4667 116.533 97.3333 114.933 98.9333C113.333 100.533 111.467 101.333 109.333 101.333H34.6667ZM34.6667 93.3333H109.333V18.6667H34.6667V93.3333ZM18.6667 117.333C16.5333 117.333 14.6667 116.533 13.0667 114.933C11.4667 113.333 10.6667 111.467 10.6667 109.333V26.6667H18.6667V109.333H101.333V117.333H18.6667Z"/>
</svg>
