<svg width="128" height="128" viewBox="0 0 128 128" xmlns="http://www.w3.org/2000/svg">
<path d="M38.6667 89.3333H57.3333V70.6667H38.6667V89.3333ZM70.6667 89.3333H89.3333V70.6667H70.6667V89.3333ZM38.6667 57.3333H57.3333V38.6667H38.6667V57.3333ZM70.6667 57.3333H89.3333V38.6667H70.6667V57.3333ZM24 112C21.8667 112 20 111.2 18.4 109.6C16.8 108 16 106.133 16 104V24C16 21.8667 16.8 20 18.4 18.4C20 16.8 21.8667 16 24 16H104C106.133 16 108 16.8 109.6 18.4C111.2 20 112 21.8667 112 24V104C112 106.133 111.2 108 109.6 109.6C108 111.2 106.133 112 104 112H24ZM24 104H104V24H24V104Z"/>
</svg>
