<svg width="128" height="128" viewBox="0 0 128 128" xmlns="http://www.w3.org/2000/svg">
<path d="M26.6667 112L16 48H112L101.333 112H26.6667ZM33.3333 104H94.6667L102.267 56H25.7333L33.3333 104ZM53.3333 77.3333H74.6667C75.8222 77.3333 76.7778 76.9333 77.5333 76.1333C78.2889 75.3333 78.6667 74.4 78.6667 73.3333C78.6667 72.1778 78.2889 71.2222 77.5333 70.4667C76.7778 69.7111 75.8222 69.3333 74.6667 69.3333H53.3333C52.2667 69.3333 51.3333 69.7111 50.5333 70.4667C49.7333 71.2222 49.3333 72.1778 49.3333 73.3333C49.3333 74.4 49.7333 75.3333 50.5333 76.1333C51.3333 76.9333 52.2667 77.3333 53.3333 77.3333ZM32 40C30.9333 40 30 39.6 29.2 38.8C28.4 38 28 37.0667 28 36C28 34.8444 28.4 33.8889 29.2 33.1333C30 32.3778 30.9333 32 32 32H96C97.1556 32 98.1111 32.3778 98.8667 33.1333C99.6222 33.8889 100 34.8444 100 36C100 37.0667 99.6222 38 98.8667 38.8C98.1111 39.6 97.1556 40 96 40H32ZM42.6667 24C41.6 24 40.6667 23.6 39.8667 22.8C39.0667 22 38.6667 21.0667 38.6667 20C38.6667 18.8444 39.0667 17.8889 39.8667 17.1333C40.6667 16.3778 41.6 16 42.6667 16H85.3333C86.4889 16 87.4444 16.3778 88.2 17.1333C88.9556 17.8889 89.3333 18.8444 89.3333 20C89.3333 21.0667 88.9556 22 88.2 22.8C87.4444 23.6 86.4889 24 85.3333 24H42.6667Z"/>
</svg>
